<svg width="24" height="24" viewBox="0 0 24 24" fill="none" xmlns="http://www.w3.org/2000/svg">
<g clip-path="url(#clip0_174_2050)">
<path d="M6 12.75H7.25V11.5H6V12.75ZM6 15.25H7.25V14H6V15.25ZM6 10.25H7.25V9H6V10.25ZM8.5 12.75H17.25V11.5H8.5V12.75ZM8.5 15.25H17.25V14H8.5V15.25ZM8.5 9V10.25H17.25V9H8.5ZM6 12.75H7.25V11.5H6V12.75ZM6 15.25H7.25V14H6V15.25ZM6 10.25H7.25V9H6V10.25ZM8.5 12.75H17.25V11.5H8.5V12.75ZM8.5 15.25H17.25V14H8.5V15.25ZM8.5 9V10.25H17.25V9H8.5Z" fill="black"/>
</g>
<defs>
<clipPath id="clip0_174_2050">
<rect width="24" height="24" fill="white"/>
</clipPath>
</defs>
</svg>
