<svg width="63" height="13" viewBox="0 0 63 13" fill="none" xmlns="http://www.w3.org/2000/svg">
<g clip-path="url(#clip0_159_1677)">
<path d="M3.44254 6.56029C3.04354 6.56029 2.71877 6.56957 2.44968 6.60669C2.18059 6.63452 1.97645 6.66236 1.82798 6.6902V9.32546C1.82798 10.0028 1.83726 10.5596 1.8651 11.005C1.88366 11.4411 1.92077 11.803 1.95789 12.0813C2.18059 12.1092 2.40329 12.137 2.6167 12.1556C2.8394 12.1834 3.0157 12.1927 3.14561 12.1927C4.23127 12.1927 5.01999 11.9514 5.53034 11.4689C6.03141 10.9864 6.28194 10.2441 6.28194 9.24195C6.28194 8.84295 6.22627 8.49034 6.10564 8.15629C5.98501 7.83153 5.80871 7.54387 5.57673 7.3119C5.34476 7.07064 5.04782 6.89434 4.68594 6.75515C4.33334 6.62524 3.91578 6.56029 3.43326 6.56029M1.83726 5.91075C2.00428 5.92931 2.14347 5.93859 2.27338 5.93859C2.40329 5.93859 2.54247 5.93859 2.68166 5.93859C3.08066 5.93859 3.43326 5.88292 3.75803 5.77157C4.0828 5.66022 4.36117 5.4932 4.59315 5.26122C4.82513 5.03852 5.00143 4.75087 5.13134 4.41682C5.26124 4.0735 5.3262 3.68377 5.3262 3.2291C5.3262 2.84866 5.2798 2.50533 5.18701 2.19912C5.09422 1.89291 4.95503 1.6331 4.76945 1.4104C4.58387 1.19698 4.36117 1.02996 4.09208 0.909328C3.82299 0.7887 3.51678 0.733025 3.17345 0.733025C2.95075 0.733025 2.75589 0.742304 2.59815 0.760862C2.43112 0.779421 2.29194 0.797979 2.18059 0.825816C2.05068 0.844374 1.93005 0.881491 1.83726 0.909328V5.90148V5.91075ZM0.250537 3.66522C0.250537 3.17342 0.250537 2.74659 0.231979 2.37542C0.2227 2.00426 0.204142 1.68877 0.176304 1.41968C0.157746 1.15058 0.129909 0.927886 0.0927926 0.742304C0.0649553 0.566002 0.027839 0.408257 -0.00927734 0.287629V0.250513C0.102072 0.250513 0.231979 0.250513 0.352607 0.250513C0.463956 0.250513 0.584584 0.250513 0.72377 0.250513H1.14133C1.35475 0.250513 1.63312 0.231955 1.99501 0.185559C2.34761 0.148443 2.81156 0.120605 3.37759 0.120605C3.89722 0.120605 4.37973 0.185559 4.82513 0.324745C5.27052 0.463932 5.65097 0.658792 5.96645 0.909328C6.29122 1.15986 6.54176 1.47535 6.72734 1.85579C6.91292 2.22696 7.00571 2.6538 7.00571 3.12703C7.00571 3.52603 6.95004 3.88791 6.83869 4.2034C6.72734 4.51889 6.56959 4.79726 6.37473 5.02924C6.17059 5.26122 5.92934 5.45608 5.65097 5.6231C5.37259 5.79013 5.0571 5.91075 4.72306 6.00355C5.21485 6.07778 5.66952 6.20769 6.06852 6.38399C6.4768 6.56029 6.82941 6.78299 7.11706 7.05208C7.41399 7.32118 7.63669 7.62739 7.79443 7.98927C7.95218 8.34188 8.03569 8.74088 8.03569 9.17699C8.03569 10.4018 7.63669 11.3205 6.82941 11.9236C6.02213 12.536 4.81585 12.8422 3.21057 12.8422C3.03426 12.8422 2.83012 12.8422 2.59815 12.8237C2.36617 12.8051 2.12491 12.7958 1.88366 12.7773C1.6424 12.7587 1.41042 12.7402 1.17845 12.7309C0.946468 12.7123 0.742329 12.7123 0.566026 12.7123H-0.00927734V12.6752C0.027839 12.5546 0.0556763 12.4061 0.0927926 12.2205C0.12063 12.0442 0.148467 11.8215 0.176304 11.5524C0.194863 11.2833 0.213421 10.9679 0.231979 10.5967C0.241258 10.2255 0.250537 9.79869 0.250537 9.3069V3.66522Z" fill="#231815"/>
<path d="M13.7609 11.9608C14.4476 11.9608 15.0785 11.9329 15.6538 11.8772C16.2291 11.8216 16.7302 11.7566 17.157 11.6824C17.6581 11.5989 18.1128 11.5061 18.5211 11.3947L18.2705 12.8052C18.1963 12.8052 18.0942 12.7959 17.9551 12.7866C17.8159 12.7866 17.6581 12.7773 17.4911 12.768C17.3241 12.768 17.1385 12.7588 16.9529 12.7588C16.7673 12.7588 16.591 12.7588 16.4147 12.7588C16.2477 12.7588 16.0992 12.7588 15.9693 12.7588C15.8394 12.7588 15.7466 12.7588 15.691 12.7588H11.9329V12.7216C11.97 12.601 11.9979 12.4525 12.035 12.267C12.0628 12.0907 12.0907 11.868 12.1185 11.5989C12.1371 11.3298 12.1556 11.0143 12.1742 10.6524C12.1835 10.2812 12.1927 9.8544 12.1927 9.36261V3.66525C12.1927 3.17346 12.1927 2.74662 12.1742 2.37546C12.1649 2.0043 12.1463 1.68881 12.1185 1.41971C12.0999 1.15062 12.0721 0.927923 12.035 0.742341C11.9979 0.566038 11.97 0.408294 11.9329 0.287666V0.250549H14.0207V0.287666C13.9836 0.408294 13.9558 0.556759 13.9186 0.742341C13.8908 0.918644 13.863 1.15062 13.8444 1.41971C13.8259 1.68881 13.8073 2.0043 13.7887 2.37546C13.7702 2.74662 13.7702 3.17346 13.7702 3.66525V11.9608H13.7609Z" fill="#231815"/>
<path d="M26.0464 7.86866C26.3805 7.86866 26.7238 7.86866 27.0857 7.86866C27.4383 7.86866 27.7909 7.86866 28.1249 7.86866C28.4683 7.86866 28.793 7.86866 29.1085 7.86866C29.424 7.86866 29.7024 7.86867 29.9622 7.85939L27.5125 2.33833L25.1092 7.8965H26.0464V7.86866ZM31.6881 12.7216V12.6845C31.6881 12.6845 31.7067 12.6103 31.7159 12.5546C31.7252 12.4989 31.7159 12.4433 31.7159 12.3969C31.7159 12.2206 31.6881 12.0164 31.6417 11.803C31.5953 11.5803 31.5025 11.3112 31.3633 10.9864L30.3055 8.62027C29.9808 8.61099 29.5446 8.60171 29.0065 8.60171H25.9258C25.499 8.60171 25.1185 8.60171 24.7752 8.62027L23.773 10.9122C23.6895 11.1256 23.5967 11.3576 23.4947 11.6174C23.3926 11.8772 23.3462 12.1278 23.3462 12.3876C23.3462 12.4618 23.3462 12.5268 23.3648 12.5732C23.374 12.6196 23.3833 12.6567 23.4019 12.6752V12.7123H21.6296V12.6752C21.7316 12.5639 21.8616 12.369 22.0193 12.0906C22.177 11.8123 22.3441 11.4597 22.5297 11.0328L27.5218 0H28.2177L32.9408 10.6246C33.0521 10.8751 33.1635 11.1163 33.2841 11.3483C33.4047 11.5803 33.5161 11.7937 33.6182 11.9793C33.7202 12.1649 33.813 12.3226 33.8965 12.4525C33.98 12.5824 34.0357 12.6567 34.0636 12.6938V12.7309H31.6788L31.6881 12.7216Z" fill="#231815"/>
<path d="M47.4997 2.1713L47.4254 2.20841C46.9708 1.79086 46.4233 1.45681 45.7923 1.20627C45.1613 0.955737 44.4561 0.835109 43.6952 0.835109C42.9344 0.835109 42.2941 0.946458 41.6817 1.17844C41.0693 1.41041 40.5496 1.74446 40.1135 2.1713C39.6774 2.60741 39.3341 3.13632 39.0928 3.7673C38.8516 4.39828 38.7309 5.11277 38.7309 5.92005C38.7309 6.81084 38.8423 7.63668 39.0835 8.39756C39.3155 9.16773 39.6588 9.82654 40.1228 10.3926C40.5868 10.9586 41.1528 11.3947 41.8394 11.7195C42.5261 12.0442 43.3334 12.202 44.2427 12.202C44.5768 12.202 44.9015 12.1649 45.2356 12.0999C45.5696 12.035 45.8851 11.9236 46.1913 11.7937C46.4975 11.6545 46.7852 11.4968 47.0543 11.3019C47.3234 11.1071 47.5646 10.8844 47.7873 10.6338L47.8801 10.6988L47.1842 12.4711C46.7481 12.6381 46.2656 12.768 45.7459 12.8608C45.217 12.9536 44.6881 13 44.1592 13C43.0828 13 42.1085 12.8422 41.2177 12.536C40.3269 12.2298 39.5568 11.7844 38.9165 11.2184C38.2763 10.6524 37.7752 9.96573 37.4226 9.16773C37.0607 8.36973 36.8844 7.48821 36.8844 6.51391C36.8844 5.96644 36.9586 5.41898 37.0978 4.89007C37.237 4.36116 37.4504 3.85081 37.7195 3.3683C37.9886 2.88579 38.3319 2.44039 38.7309 2.04139C39.1299 1.64239 39.5846 1.28978 40.1042 0.992854C40.6146 0.695923 41.1806 0.463946 41.8023 0.296922C42.424 0.129898 43.0921 0.0463867 43.8066 0.0463867C44.9294 0.0463867 45.9686 0.21341 46.9244 0.556736L47.5182 2.16202L47.4997 2.1713Z" fill="#231815"/>
<path d="M51.7495 12.6938C51.7866 12.5732 51.8144 12.4247 51.8515 12.2391C51.8794 12.0628 51.9072 11.8401 51.935 11.571C51.9536 11.3019 51.9722 10.9865 51.9907 10.6153C52 10.2441 52.0093 9.81729 52.0093 9.32549V3.66525C52.0093 3.17346 52.0093 2.74662 51.9907 2.37546C51.9814 2.0043 51.9629 1.68881 51.935 1.41971C51.9165 1.15062 51.8886 0.927923 51.8515 0.742341C51.8237 0.566038 51.7866 0.408294 51.7495 0.287666V0.250549H53.8372V0.287666C53.8001 0.408294 53.7723 0.556759 53.7352 0.742341C53.6981 0.918643 53.6795 1.15062 53.6609 1.41971C53.6424 1.68881 53.6238 2.0043 53.6053 2.37546C53.5867 2.74662 53.5867 3.17346 53.5867 3.66525V5.60458L58.6717 1.45683C59.2377 0.992876 59.5253 0.593875 59.5253 0.259828H61.975V0.296945C61.6317 0.380457 61.2884 0.538201 60.9357 0.760899C60.5831 0.992876 60.212 1.27125 59.813 1.59602L55.3219 5.35405L60.7316 11.2834C60.9543 11.5154 61.1492 11.7102 61.3069 11.8587C61.4647 12.0164 61.6038 12.1371 61.7245 12.2391C61.8451 12.3412 61.9564 12.4247 62.0585 12.4897C62.1606 12.5546 62.2627 12.6196 62.374 12.6845V12.7216H59.8223C59.7944 12.666 59.7573 12.601 59.7016 12.5175C59.646 12.434 59.581 12.3505 59.5068 12.267C59.4325 12.1835 59.3583 12.0907 59.2748 11.9979C59.1913 11.9051 59.1078 11.8216 59.0335 11.7381L53.5774 5.76233V9.32549C53.5774 9.81729 53.5774 10.2441 53.596 10.6153C53.6053 10.9865 53.6238 11.3019 53.6517 11.571C53.6702 11.8401 53.6981 12.0628 53.7259 12.2391C53.7537 12.4154 53.7909 12.5732 53.828 12.6938V12.7309H51.7402V12.6938H51.7495Z" fill="#231815"/>
</g>
<defs>
<clipPath id="clip0_159_1677">
<rect width="62.3833" height="13" fill="white"/>
</clipPath>
</defs>
</svg>
