<svg width="24" height="24" viewBox="0 0 24 24" fill="none" xmlns="http://www.w3.org/2000/svg">
<g clip-path="url(#clip0_273_327)">
<path d="M12 8.33333C14.7564 8.33333 17.2145 9.75333 18.4145 12C17.2145 14.2467 14.7636 15.6667 12 15.6667C9.23636 15.6667 6.78545 14.2467 5.58545 12C6.78545 9.75333 9.24364 8.33333 12 8.33333ZM12 7C8.36364 7 5.25818 9.07333 4 12C5.25818 14.9267 8.36364 17 12 17C15.6364 17 18.7418 14.9267 20 12C18.7418 9.07333 15.6364 7 12 7ZM12 10.3333C13.0036 10.3333 13.8182 11.08 13.8182 12C13.8182 12.92 13.0036 13.6667 12 13.6667C10.9964 13.6667 10.1818 12.92 10.1818 12C10.1818 11.08 10.9964 10.3333 12 10.3333ZM12 9C10.1964 9 8.72727 10.3467 8.72727 12C8.72727 13.6533 10.1964 15 12 15C13.8036 15 15.2727 13.6533 15.2727 12C15.2727 10.3467 13.8036 9 12 9Z" fill="#DBDBDB"/>
</g>
<defs>
<clipPath id="clip0_273_327">
<rect width="24" height="24" fill="white"/>
</clipPath>
</defs>
</svg>
