<svg width="175" height="25" viewBox="0 0 175 25" fill="none" xmlns="http://www.w3.org/2000/svg">
<g clip-path="url(#clip0_228_3520)">
<path d="M140.732 3.31687H149.939V0H137.09V24.6824H149.99V21.4361H140.732V13.4615H150.007V10.1623H140.732V3.31687Z" fill="white"/>
<path d="M58.8658 3.31687H68.0727V0H55.2415V24.6824H68.1243V21.4361H58.8658V13.4615H68.1586V10.1623H58.8658V3.31687Z" fill="white"/>
<path d="M93.1512 0V18.5956C91.5194 15.4728 83.429 0 83.429 0H79.4783V24.6648H83.0511V6.65138C84.6829 9.75653 92.5328 24.7001 92.5328 24.7001L96.7069 24.6648V0H93.134H93.1512Z" fill="white"/>
<path d="M35.5566 20.1306C34.6978 17.59 28.7202 0 28.7202 0H25.0271L33.5985 24.6648H37.4289L46.1549 0.0176429H42.4447C42.4447 0.0176429 36.4155 17.5723 35.5566 20.1129" fill="white"/>
<path d="M8.57136 0L0 24.6824H3.69307C3.69307 24.6824 9.67069 7.12773 10.5295 4.56951C11.4056 7.11009 17.4176 24.6824 17.4176 24.6824H21.1106L12.4018 0H8.57136Z" fill="white"/>
<path d="M121.957 0V16.2138C121.957 17.8017 121.751 18.9838 121.322 19.7424C120.583 20.9951 119.071 21.6478 116.804 21.6478C114.743 21.6478 113.351 21.0127 112.664 19.7248C112.235 18.9485 112.012 17.7664 112.012 16.2315V0H108.387V17.1842C108.387 19.0014 108.834 20.5893 109.727 21.8948C111.17 23.9591 113.558 25 116.804 25C120.36 25 122.885 23.9414 124.31 21.8596C125.152 20.6775 125.581 19.0896 125.581 17.1842V0H121.94H121.957Z" fill="white"/>
<path d="M164.866 21.3832V0H161.224V24.5942H175V21.3832H164.866Z" fill="white"/>
</g>
<defs>
<clipPath id="clip0_228_3520">
<rect width="175" height="25" fill="white"/>
</clipPath>
</defs>
</svg>
