<svg width="39" height="8" viewBox="0 0 39 8" fill="none" xmlns="http://www.w3.org/2000/svg">
<g clip-path="url(#clip0_712_311)">
<path d="M2.11834 4.0371C1.8728 4.0371 1.67294 4.04281 1.50735 4.06565C1.34175 4.08278 1.21612 4.09991 1.12476 4.11705V5.73874C1.12476 6.15559 1.13047 6.4982 1.1476 6.77229C1.15902 7.04067 1.18186 7.26337 1.2047 7.43468C1.34175 7.45181 1.47879 7.46894 1.61013 7.48036C1.74717 7.49749 1.85567 7.5032 1.93561 7.5032C2.60371 7.5032 3.08907 7.35473 3.40313 7.0578C3.71149 6.76087 3.86566 6.30405 3.86566 5.68735C3.86566 5.44181 3.8314 5.22483 3.75717 5.01926C3.68293 4.8194 3.57444 4.64238 3.43169 4.49963C3.28893 4.35116 3.1062 4.24267 2.88351 4.15702C2.66652 4.07707 2.40956 4.0371 2.11263 4.0371M1.13047 3.63739C1.23326 3.64881 1.31891 3.65452 1.39885 3.65452C1.47879 3.65452 1.56445 3.65452 1.6501 3.65452C1.89564 3.65452 2.11263 3.62026 2.31248 3.55173C2.51234 3.48321 2.68365 3.38043 2.8264 3.23767C2.96916 3.10063 3.07765 2.92361 3.1576 2.71804C3.23754 2.50677 3.27751 2.26694 3.27751 1.98714C3.27751 1.75302 3.24896 1.54174 3.19186 1.35331C3.13475 1.16487 3.0491 1.00498 2.9349 0.867938C2.82069 0.736603 2.68365 0.633819 2.51805 0.559586C2.35246 0.485354 2.16402 0.451092 1.95274 0.451092C1.8157 0.451092 1.69578 0.456803 1.59871 0.468223C1.49592 0.479643 1.41027 0.491064 1.34175 0.508194C1.26181 0.519615 1.18757 0.542456 1.13047 0.559586V3.63168V3.63739ZM0.154026 2.25552C0.154026 1.95288 0.154026 1.69021 0.142606 1.4618C0.136896 1.23339 0.125475 1.03924 0.108345 0.873648C0.0969243 0.708052 0.0797937 0.571007 0.0569529 0.456803C0.0398223 0.348309 0.0169815 0.251235 -0.00585938 0.177002V0.154162C0.0626631 0.154162 0.142606 0.154162 0.216839 0.154162C0.285361 0.154162 0.359594 0.154162 0.445247 0.154162H0.702206C0.833541 0.154162 1.00485 0.142741 1.22755 0.11419C1.44453 0.0913494 1.73004 0.0742188 2.07837 0.0742188C2.39814 0.0742188 2.69507 0.11419 2.96916 0.199843C3.24325 0.285496 3.47737 0.405411 3.67151 0.559586C3.87137 0.713762 4.02555 0.907909 4.13975 1.14203C4.25395 1.37044 4.31106 1.63311 4.31106 1.92433C4.31106 2.16986 4.2768 2.39256 4.20827 2.58671C4.13975 2.78086 4.04268 2.95216 3.92276 3.09492C3.79714 3.23767 3.64867 3.35759 3.47737 3.46037C3.30606 3.56316 3.11191 3.63739 2.90635 3.69449C3.20899 3.74017 3.48879 3.82011 3.73433 3.92861C3.98558 4.0371 4.20256 4.17415 4.37958 4.33974C4.56231 4.50534 4.69935 4.69378 4.79642 4.91647C4.8935 5.13346 4.94489 5.379 4.94489 5.64738C4.94489 6.40113 4.69935 6.96644 4.20256 7.3376C3.70578 7.71448 2.96345 7.90291 1.97558 7.90291C1.86709 7.90291 1.74146 7.90291 1.59871 7.89149C1.45595 7.88007 1.30749 7.87436 1.15902 7.86294C1.01056 7.85152 0.867802 7.8401 0.725047 7.83439C0.582292 7.82297 0.456667 7.82297 0.348173 7.82297H-0.00585938V7.80013C0.0169815 7.7259 0.0341121 7.63453 0.0569529 7.52033C0.0740835 7.41184 0.0912141 7.27479 0.108345 7.10919C0.119765 6.9436 0.131186 6.74945 0.142606 6.52104C0.148316 6.29263 0.154026 6.02996 0.154026 5.72732V2.25552Z" fill="#231815"/>
<path d="M8.46817 7.36058C8.89073 7.36058 9.27902 7.34345 9.63306 7.30919C9.98709 7.27492 10.2954 7.23495 10.5581 7.18927C10.8665 7.13788 11.1463 7.08078 11.3975 7.01225L11.2433 7.88021C11.1977 7.88021 11.1348 7.8745 11.0492 7.86879C10.9635 7.86879 10.8665 7.86308 10.7637 7.85737C10.6609 7.85737 10.5467 7.85166 10.4325 7.85166C10.3183 7.85166 10.2098 7.85166 10.1013 7.85166C9.99851 7.85166 9.90714 7.85166 9.8272 7.85166C9.74726 7.85166 9.69016 7.85166 9.6559 7.85166H7.34326V7.82881C7.3661 7.75458 7.38323 7.66322 7.40607 7.54901C7.4232 7.44052 7.44034 7.30348 7.45747 7.13788C7.46889 6.97228 7.48031 6.77814 7.49173 6.55544C7.49744 6.32703 7.50315 6.06436 7.50315 5.76172V2.25565C7.50315 1.95301 7.50315 1.69034 7.49173 1.46193C7.48602 1.23353 7.4746 1.03938 7.45747 0.873783C7.44605 0.708187 7.42892 0.571142 7.40607 0.456938C7.38323 0.348444 7.3661 0.25137 7.34326 0.177138V0.154297H8.62806V0.177138C8.60522 0.25137 8.58809 0.342734 8.56525 0.456938C8.54812 0.565432 8.53099 0.708187 8.51956 0.873783C8.50814 1.03938 8.49672 1.23353 8.4853 1.46193C8.47388 1.69034 8.47388 1.95301 8.47388 2.25565V7.36058H8.46817Z" fill="#231815"/>
<path d="M16.0286 4.84225C16.2342 4.84225 16.4455 4.84225 16.6681 4.84225C16.8851 4.84225 17.1021 4.84225 17.3077 4.84225C17.519 4.84225 17.7188 4.84225 17.913 4.84225C18.1071 4.84225 18.2784 4.84226 18.4383 4.83655L16.9308 1.43897L15.4519 4.85939H16.0286V4.84225ZM19.5004 7.82869V7.80585C19.5004 7.80585 19.5118 7.76017 19.5175 7.72591C19.5233 7.69165 19.5175 7.65739 19.5175 7.62884C19.5175 7.52034 19.5004 7.39472 19.4719 7.26338C19.4433 7.12634 19.3862 6.96074 19.3006 6.76088L18.6496 5.30478C18.4497 5.29907 18.1814 5.29336 17.8502 5.29336H15.9544C15.6917 5.29336 15.4576 5.29336 15.2463 5.30478L14.6296 6.7152C14.5782 6.84654 14.5211 6.98929 14.4583 7.14918C14.3955 7.30906 14.3669 7.46324 14.3669 7.62313C14.3669 7.66881 14.3669 7.70878 14.3784 7.73733C14.3841 7.76588 14.3898 7.78872 14.4012 7.80014V7.82298H13.3105V7.80014C13.3734 7.73162 13.4533 7.61171 13.5504 7.4404C13.6474 7.26909 13.7502 7.05211 13.8644 6.78944L16.9365 0H17.3648L20.2713 6.53819C20.3398 6.69236 20.4083 6.84083 20.4826 6.98358C20.5568 7.12634 20.6253 7.25767 20.6881 7.37188C20.7509 7.48608 20.808 7.58315 20.8594 7.6631C20.9108 7.74304 20.9451 7.78872 20.9622 7.81156V7.8344H19.4947L19.5004 7.82869Z" fill="#231815"/>
<path d="M29.2307 1.3362L29.185 1.35904C28.9052 1.10208 28.5683 0.896516 28.18 0.74234C27.7917 0.588165 27.3578 0.513932 26.8895 0.513932C26.4213 0.513932 26.0273 0.582455 25.6504 0.72521C25.2735 0.867965 24.9538 1.07353 24.6854 1.3362C24.417 1.60458 24.2057 1.93006 24.0573 2.31836C23.9088 2.70665 23.8346 3.14634 23.8346 3.64313C23.8346 4.19131 23.9031 4.69951 24.0516 5.16775C24.1943 5.6417 24.4056 6.04712 24.6911 6.39545C24.9766 6.74377 25.3249 7.01215 25.7475 7.21201C26.17 7.41186 26.6668 7.50894 27.2264 7.50894C27.432 7.50894 27.6319 7.48609 27.8374 7.44612C28.043 7.40615 28.2371 7.33763 28.4256 7.25769C28.614 7.17203 28.791 7.07496 28.9566 6.95505C29.1222 6.83513 29.2707 6.69809 29.4077 6.54391L29.4648 6.58388L29.0366 7.67453C28.7682 7.77732 28.4713 7.85726 28.1515 7.91436C27.826 7.97146 27.5005 8.00001 27.175 8.00001C26.5127 8.00001 25.9131 7.90294 25.3649 7.7145C24.8167 7.52607 24.3428 7.25198 23.9488 6.90365C23.5548 6.55533 23.2464 6.13278 23.0294 5.6417C22.8067 5.15062 22.6982 4.60815 22.6982 4.00858C22.6982 3.67168 22.7439 3.33477 22.8296 3.00929C22.9152 2.68381 23.0466 2.36975 23.2122 2.07282C23.3778 1.77589 23.589 1.5018 23.8346 1.25626C24.0801 1.01072 24.3599 0.793732 24.6797 0.611006C24.9937 0.428279 25.3421 0.285524 25.7247 0.18274C26.1072 0.0799563 26.5184 0.0285645 26.9581 0.0285645C27.649 0.0285645 28.2885 0.131348 28.8767 0.342626L29.2421 1.33049L29.2307 1.3362Z" fill="#231815"/>
<path d="M31.846 7.81168C31.8689 7.73745 31.886 7.64609 31.9089 7.53188C31.926 7.42339 31.9431 7.28634 31.9602 7.12075C31.9717 6.95515 31.9831 6.76101 31.9945 6.5326C32.0002 6.30419 32.0059 6.04152 32.0059 5.73888V2.25565C32.0059 1.95301 32.0059 1.69034 31.9945 1.46193C31.9888 1.23353 31.9774 1.03938 31.9602 0.873783C31.9488 0.708187 31.9317 0.571142 31.9089 0.456938C31.8917 0.348444 31.8689 0.25137 31.846 0.177138V0.154297H33.1308V0.177138C33.108 0.25137 33.0909 0.342734 33.068 0.456938C33.0452 0.565432 33.0338 0.708187 33.0223 0.873783C33.0109 1.03938 32.9995 1.23353 32.9881 1.46193C32.9767 1.69034 32.9767 1.95301 32.9767 2.25565V3.44909L36.1059 0.896624C36.4542 0.611113 36.6312 0.365575 36.6312 0.160007H38.1387V0.182848C37.9274 0.23424 37.7161 0.331313 37.4991 0.468358C37.2822 0.611113 37.0538 0.78242 36.8082 0.982277L34.0445 3.29491L37.3735 6.94373C37.5106 7.08649 37.6305 7.2064 37.7276 7.29776C37.8246 7.39484 37.9103 7.46907 37.9845 7.53188C38.0587 7.5947 38.1273 7.64609 38.1901 7.68606C38.2529 7.72603 38.3157 7.766 38.3842 7.80597V7.82881H36.8139C36.7968 7.79455 36.774 7.75458 36.7397 7.70319C36.7054 7.6518 36.6655 7.60041 36.6198 7.54901C36.5741 7.49762 36.5284 7.44052 36.477 7.38342C36.4256 7.32632 36.3742 7.27492 36.3286 7.22353L32.971 3.54616V5.73888C32.971 6.04152 32.971 6.30419 32.9824 6.5326C32.9881 6.76101 32.9995 6.95515 33.0166 7.12075C33.0281 7.28634 33.0452 7.42339 33.0623 7.53188C33.0794 7.64038 33.1023 7.73745 33.1251 7.81168V7.83452H31.8403V7.81168H31.846Z" fill="#231815"/>
</g>
<defs>
<clipPath id="clip0_712_311">
<rect width="38.3897" height="8" fill="white"/>
</clipPath>
</defs>
</svg>
