<svg width="94" height="14" viewBox="0 0 94 14" fill="none" xmlns="http://www.w3.org/2000/svg">
<g clip-path="url(#clip0_273_1627)">
<path d="M75.4837 1.85745H80.3765V0H73.5485V13.8222H80.4039V12.0042H75.4837V7.53846H80.413V5.6909H75.4837V1.85745Z" fill="#231815"/>
<path d="M31.9778 1.85745H36.8706V0H30.0517V13.8222H36.898V12.0042H31.9778V7.53846H36.9163V5.6909H31.9778V1.85745Z" fill="#231815"/>
<path d="M50.1981 0V10.4135C49.3309 8.66478 45.0314 0 45.0314 0H42.9319V13.8123H44.8306V3.72477C45.6978 5.46366 49.8694 13.832 49.8694 13.832L52.0876 13.8123V0H50.1889H50.1981Z" fill="#231815"/>
<path d="M19.5906 11.2731C19.1342 9.85039 15.9575 0 15.9575 0H13.9949L18.5499 13.8123H20.5856L25.2228 0.00988003H23.2511C23.2511 0.00988003 20.047 9.84051 19.5906 11.2632" fill="#231815"/>
<path d="M5.24989 0L0.694824 13.8222H2.65743C2.65743 13.8222 5.83411 3.99153 6.29053 2.55893C6.75607 3.98165 9.95101 13.8222 9.95101 13.8222H11.9136L7.28552 0H5.24989Z" fill="#231815"/>
<path d="M65.5064 0V9.07975C65.5064 9.96895 65.3968 10.6309 65.1686 11.0558C64.7761 11.7572 63.9728 12.1228 62.7678 12.1228C61.6724 12.1228 60.933 11.7671 60.5679 11.0459C60.3397 10.6112 60.221 9.94919 60.221 9.08963V0H58.2949V9.62315C58.2949 10.6408 58.5323 11.53 59.007 12.2611C59.7737 13.4171 61.0426 14 62.7678 14C64.6574 14 65.9993 13.4072 66.757 12.2414C67.2042 11.5794 67.4325 10.6902 67.4325 9.62315V0H65.4972H65.5064Z" fill="#231815"/>
<path d="M88.3091 11.9746V0H86.3739V13.7728H93.6948V11.9746H88.3091Z" fill="#231815"/>
</g>
<defs>
<clipPath id="clip0_273_1627">
<rect width="93" height="14" fill="white" transform="translate(0.694824)"/>
</clipPath>
</defs>
</svg>
