<svg width="46" height="8" viewBox="0 0 46 8" fill="none" xmlns="http://www.w3.org/2000/svg">
<g clip-path="url(#clip0_322_2072)">
<path d="M1.22498 4.40284C1.60283 4.46526 1.95022 4.4766 2.26713 4.41987C2.58404 4.3688 2.85219 4.25533 3.08378 4.08511C3.30927 3.9149 3.48601 3.68228 3.61399 3.39292C3.74198 3.10355 3.80292 2.74611 3.80292 2.32625C3.80292 2.03689 3.77245 1.77022 3.70541 1.53192C3.63837 1.29362 3.54086 1.08937 3.41288 0.92483C3.2849 0.754618 3.12035 0.629795 2.91923 0.533341C2.72421 0.442561 2.49262 0.397171 2.22447 0.397171C2.05992 0.397171 1.91365 0.402844 1.79176 0.414192C1.66987 0.425539 1.56017 0.442561 1.47485 0.453908C1.37125 0.47093 1.29202 0.493625 1.22498 0.510646V4.40284ZM0 0.0851139C0.0792275 0.0907877 0.158455 0.102135 0.243777 0.107809C0.31691 0.113483 0.402232 0.119156 0.493648 0.119156C0.585065 0.119156 0.676481 0.119156 0.773992 0.119156C0.926353 0.119156 1.12747 0.102135 1.38953 0.0680926C1.64549 0.0340501 1.97459 0.0170288 2.37683 0.0170288C2.74859 0.0170288 3.08987 0.0680926 3.40678 0.17022C3.72369 0.272348 3.99794 0.419866 4.22953 0.612774C4.46112 0.805681 4.64395 1.04398 4.77193 1.32199C4.89992 1.60001 4.96696 1.91774 4.96696 2.27519C4.96696 2.75745 4.86335 3.16596 4.65614 3.51774C4.44893 3.86951 4.17468 4.14753 3.8273 4.36313C3.47992 4.57873 3.08378 4.72625 2.63889 4.80568C2.1879 4.88511 1.71863 4.89079 1.22498 4.81703V5.71348C1.22498 6.01987 1.22498 6.28653 1.23717 6.51348C1.24326 6.74043 1.26155 6.93902 1.27373 7.10355C1.28592 7.26809 1.30421 7.40994 1.32858 7.51774C1.34687 7.63121 1.37125 7.72199 1.39562 7.80143V7.82412H0V7.80143C0.0243777 7.72767 0.042661 7.63121 0.0670387 7.51774C0.085322 7.40426 0.1097 7.26809 0.121889 7.10355C0.140172 6.93902 0.152361 6.74043 0.158455 6.51348C0.164549 6.28653 0.170644 6.01987 0.170644 5.71348V2.20143C0.170644 1.89504 0.170644 1.62838 0.158455 1.40143C0.152361 1.17448 0.140172 0.975894 0.121889 0.805681C0.1097 0.635469 0.0914164 0.499298 0.0670387 0.385823C0.042661 0.272348 0.0243777 0.181568 0 0.107809L0 0.0851139Z" fill="#702083"/>
<path d="M13.5845 2.2014C13.5845 1.89501 13.5845 1.62835 13.5723 1.4014C13.5662 1.17444 13.554 0.975863 13.5357 0.80565C13.5174 0.635438 13.5052 0.499267 13.487 0.385792C13.4687 0.272317 13.4443 0.181537 13.4199 0.107778V0.085083H14.456V0.107778C14.4316 0.181537 14.4072 0.277991 14.3889 0.385792C14.3646 0.499267 14.3524 0.635438 14.3341 0.80565C14.3219 0.970189 14.3097 1.16877 14.2975 1.4014C14.2853 1.63402 14.2853 1.89501 14.2853 2.2014V5.11771C14.2853 5.63402 14.2061 6.0709 14.0476 6.43402C13.8892 6.79714 13.6698 7.09785 13.3833 7.3248C13.103 7.55742 12.7617 7.72764 12.3656 7.83544C11.9694 7.94324 11.5367 7.9943 11.0675 7.9943C10.5982 7.9943 10.1594 7.94324 9.75716 7.84111C9.35493 7.73898 9.00146 7.57445 8.69674 7.35317C8.39811 7.12622 8.16043 6.83686 7.98978 6.47941C7.81914 6.12196 7.73382 5.68508 7.73382 5.16877V2.2014C7.73382 1.89501 7.73382 1.62835 7.72163 1.4014C7.71553 1.17444 7.70334 0.975863 7.68506 0.80565C7.66678 0.635438 7.64849 0.499267 7.63021 0.385792C7.61193 0.272317 7.58755 0.181537 7.56317 0.107778V0.085083H8.95879V0.107778C8.93442 0.181537 8.91613 0.277991 8.89176 0.385792C8.86738 0.499267 8.8491 0.635438 8.83691 0.80565C8.81862 0.970189 8.80643 1.16877 8.80034 1.4014C8.79425 1.63402 8.78815 1.89501 8.78815 2.2014V5.23118C8.78815 5.66239 8.85519 6.01416 8.99536 6.29218C9.13553 6.57019 9.31227 6.79147 9.53777 6.95601C9.76326 7.12054 10.0192 7.23402 10.3057 7.29643C10.5921 7.36452 10.8846 7.39288 11.1833 7.39288C11.4819 7.39288 11.7744 7.35884 12.0609 7.29643C12.3473 7.23402 12.6033 7.11487 12.8227 6.95601C13.0421 6.79147 13.2249 6.57019 13.3651 6.29218C13.5052 6.01416 13.5723 5.65671 13.5723 5.23118V2.2014H13.5845Z" fill="#702083"/>
<path d="M18.8927 4.08511C18.9963 4.10781 19.106 4.12483 19.2096 4.1305C19.3193 4.14185 19.4229 4.14185 19.5204 4.14185C19.813 4.14185 20.075 4.10214 20.3188 4.0227C20.5565 3.94327 20.7637 3.81845 20.9343 3.65391C21.105 3.48937 21.233 3.28511 21.3244 3.03547C21.4158 2.7915 21.4646 2.50214 21.4646 2.16738C21.4646 1.89504 21.4341 1.65107 21.367 1.43547C21.3 1.21419 21.2025 1.02696 21.0745 0.873766C20.9465 0.720575 20.782 0.601426 20.5809 0.51632C20.3858 0.431213 20.1542 0.385823 19.8922 0.385823C19.6301 0.385823 19.4107 0.397171 19.2523 0.425539C19.0938 0.448234 18.9719 0.476603 18.8927 0.504972V4.07944V4.08511ZM18.8927 5.71916C18.8927 6.02554 18.8927 6.29221 18.9049 6.51916C18.9171 6.74611 18.9293 6.94469 18.9415 7.10923C18.9536 7.27377 18.9719 7.41561 18.9963 7.52341C19.0207 7.63689 19.039 7.72767 19.0633 7.8071V7.8298H17.6677V7.8071C17.6921 7.73334 17.7104 7.63689 17.7348 7.52341C17.7591 7.40994 17.7713 7.27377 17.7896 7.10923C17.8018 6.94469 17.814 6.74611 17.8262 6.51916C17.8384 6.29221 17.8384 6.02554 17.8384 5.71348V2.20143C17.8384 1.89504 17.8384 1.62838 17.8262 1.40143C17.814 1.17448 17.8018 0.975894 17.7896 0.811355C17.7774 0.646816 17.7591 0.504972 17.7348 0.391497C17.7104 0.278022 17.6921 0.181568 17.6677 0.107809V0.0851139L17.9115 0.107809C17.9846 0.113483 18.07 0.119156 18.1614 0.119156C18.2528 0.119156 18.3442 0.119156 18.4417 0.119156C18.5941 0.119156 18.7952 0.102135 19.0573 0.0680926C19.3132 0.0340501 19.6423 0.0170288 20.0445 0.0170288C20.4163 0.0170288 20.7576 0.0624189 21.0745 0.158873C21.3914 0.255327 21.6657 0.391497 21.8973 0.567383C22.1288 0.748944 22.3117 0.97022 22.4397 1.23121C22.5676 1.49221 22.6347 1.78724 22.6347 2.12199C22.6347 2.38299 22.5981 2.62128 22.525 2.84256C22.4518 3.06384 22.3543 3.26242 22.2264 3.44398C22.0984 3.62554 21.9399 3.7844 21.7571 3.92057C21.5743 4.05675 21.3731 4.17589 21.1476 4.26667L23.1893 6.92767C23.2929 7.06384 23.3843 7.17731 23.4696 7.27377C23.5549 7.37022 23.6403 7.45533 23.7195 7.52341C23.7987 7.5915 23.8779 7.65391 23.9511 7.69362C24.0242 7.73902 24.0973 7.77306 24.1766 7.80143V7.82412H22.4945C22.4823 7.75604 22.4458 7.66526 22.3787 7.55178C22.3117 7.43831 22.2385 7.32483 22.1532 7.21136L20.0933 4.51632C20.0019 4.52199 19.9166 4.52767 19.8252 4.53334C19.7337 4.53901 19.6484 4.53901 19.5509 4.53901C19.4412 4.53901 19.3315 4.53901 19.2218 4.52767C19.1121 4.52199 19.0024 4.51065 18.8866 4.48795V5.70214L18.8927 5.71916Z" fill="#702083"/>
<path d="M27.9917 4.40284C28.3696 4.46526 28.7169 4.4766 29.0339 4.41987C29.3508 4.3688 29.6189 4.25533 29.8505 4.08511C30.076 3.9149 30.2527 3.68228 30.3807 3.39292C30.5087 3.10355 30.5696 2.74611 30.5696 2.32625C30.5696 2.03689 30.5392 1.77022 30.4721 1.53192C30.4051 1.29362 30.3076 1.08937 30.1796 0.92483C30.0516 0.754618 29.8871 0.629795 29.686 0.533341C29.4909 0.442561 29.2593 0.397171 28.9973 0.397171C28.8327 0.397171 28.6865 0.402844 28.5585 0.414192C28.4366 0.425539 28.333 0.442561 28.2477 0.453908C28.1441 0.47093 28.0648 0.493625 27.9978 0.510646V4.40284H27.9917ZM26.7667 0.0851139C26.846 0.0907877 26.9252 0.102135 27.0105 0.107809C27.0836 0.113483 27.169 0.119156 27.2604 0.119156C27.3518 0.119156 27.4432 0.119156 27.5407 0.119156C27.6931 0.119156 27.8942 0.102135 28.1563 0.0680926C28.4122 0.0340501 28.7413 0.0170288 29.1436 0.0170288C29.5153 0.0170288 29.8566 0.0680926 30.1735 0.17022C30.4904 0.272348 30.7647 0.419866 30.9963 0.612774C31.2278 0.805681 31.4107 1.04398 31.5387 1.32199C31.6666 1.60001 31.7337 1.91774 31.7337 2.27519C31.7337 2.75745 31.6301 3.16596 31.4229 3.51774C31.2157 3.86951 30.9414 4.14753 30.6001 4.36313C30.2527 4.57873 29.8566 4.72625 29.4117 4.80568C28.9607 4.88511 28.4914 4.89079 27.9978 4.81703V5.71348C27.9978 6.01987 27.9978 6.28653 28.01 6.51348C28.0222 6.74043 28.0344 6.93902 28.0466 7.10355C28.0587 7.26809 28.077 7.40994 28.1014 7.51774C28.1197 7.63121 28.1441 7.72199 28.1684 7.80143V7.82412H26.7728V7.80143C26.7972 7.72767 26.8155 7.63121 26.8399 7.51774C26.8642 7.40426 26.8825 7.26809 26.8947 7.10355C26.913 6.93902 26.9252 6.74043 26.9313 6.51348C26.9374 6.28653 26.9435 6.01987 26.9435 5.71348V2.20143C26.9435 1.89504 26.9435 1.62838 26.9313 1.40143C26.9252 1.17448 26.913 0.975894 26.8947 0.805681C26.8825 0.635469 26.8642 0.499298 26.8399 0.385823C26.8155 0.272348 26.7972 0.181568 26.7728 0.107809V0.0851139H26.7667Z" fill="#702083"/>
<path d="M35.5488 7.35884C36.0059 7.35884 36.4264 7.34182 36.8103 7.30778C37.1943 7.27374 37.5295 7.22835 37.8159 7.18296C38.1511 7.13189 38.4558 7.07515 38.7301 7.00707L38.5594 7.88083C38.5107 7.88083 38.4436 7.87515 38.3522 7.86948C38.2608 7.86948 38.1572 7.86381 38.0414 7.85813C37.9256 7.85813 37.8098 7.85246 37.6818 7.85246C37.5538 7.85246 37.438 7.85246 37.3222 7.85246C37.2126 7.85246 37.1089 7.85246 37.0236 7.85246C36.9383 7.85246 36.8713 7.85246 36.8347 7.85246H34.3238V7.82976C34.3482 7.75601 34.3725 7.65955 34.3908 7.54608C34.4152 7.4326 34.4335 7.29643 34.4457 7.13189C34.4579 6.96735 34.4701 6.76877 34.4822 6.54182C34.4883 6.31487 34.4944 6.0482 34.4944 5.74182V2.2014C34.4944 1.89501 34.4944 1.62835 34.4822 1.4014C34.4762 1.17444 34.464 0.975863 34.4457 0.80565C34.4274 0.635438 34.4091 0.499267 34.3908 0.385792C34.3725 0.272317 34.3482 0.181537 34.3238 0.107778V0.085083H35.7194V0.107778C35.695 0.181537 35.6768 0.277991 35.6524 0.385792C35.628 0.499267 35.6158 0.635438 35.5975 0.80565C35.5853 0.970189 35.5731 1.17444 35.561 1.4014C35.5488 1.62835 35.5488 1.89501 35.5488 2.2014V7.35317V7.35884Z" fill="#702083"/>
<path d="M42.7524 0.0794326C43.2278 0.0794326 43.6666 0.0737589 44.0688 0.0680851C44.4649 0.0680851 44.8123 0.0567376 45.0927 0.0453901C45.373 0.0340426 45.568 0.022695 45.6655 0L45.3791 0.720567C45.2511 0.686525 45.1049 0.658156 44.9342 0.635461C44.7879 0.612766 44.6051 0.595745 44.3979 0.57305C44.1846 0.550355 43.9408 0.544681 43.6666 0.544681C43.5752 0.544681 43.4655 0.544681 43.3314 0.550355C43.2034 0.550355 43.0754 0.561702 42.9596 0.567376C42.8194 0.57305 42.6793 0.578723 42.533 0.590071V3.54043C42.9291 3.54043 43.2887 3.5234 43.6117 3.50638C43.9347 3.48936 44.209 3.47234 44.4345 3.44965C44.6965 3.42695 44.9281 3.40426 45.1292 3.37589L44.9464 4.15887C44.6782 4.12482 44.404 4.09645 44.1237 4.06809C43.886 4.04539 43.6239 4.0227 43.3375 4C43.051 3.97731 42.7829 3.97163 42.5208 3.97163V7.35887C42.9779 7.35887 43.3984 7.34184 43.7824 7.30213C44.1663 7.26809 44.5015 7.22269 44.7879 7.1773C45.1231 7.12624 45.4218 7.0695 45.7021 7.00142L45.5315 7.87518C45.4827 7.87518 45.4157 7.8695 45.3243 7.86383C45.2328 7.86383 45.1292 7.85816 45.0134 7.85248C44.8976 7.85248 44.7818 7.84681 44.6539 7.84681C44.5259 7.84681 44.4101 7.84681 44.2943 7.84681C44.1846 7.84681 44.081 7.84681 43.9957 7.84681C43.9103 7.84681 43.8433 7.84681 43.8067 7.84681H41.2958V7.82411C41.3202 7.75035 41.3385 7.6539 41.3629 7.5461C41.3873 7.43262 41.4055 7.29645 41.4177 7.13192C41.436 6.96738 41.4482 6.76879 41.4543 6.54184C41.4604 6.31489 41.4665 6.04255 41.4665 5.74184V2.20142C41.4665 1.89504 41.4665 1.62837 41.4543 1.40142C41.4482 1.17447 41.436 0.975887 41.4177 0.805674C41.4055 0.635461 41.3873 0.499291 41.3629 0.385816C41.3385 0.27234 41.3202 0.18156 41.2958 0.102128V0.0794326C41.7834 0.0794326 42.2588 0.0794326 42.7402 0.0737589" fill="#702083"/>
</g>
<defs>
<clipPath id="clip0_322_2072">
<rect width="45.7143" height="8" fill="white"/>
</clipPath>
</defs>
</svg>
