<svg width="47" height="8" viewBox="0 0 47 8" fill="none" xmlns="http://www.w3.org/2000/svg">
<g clip-path="url(#clip0_322_2073)">
<path d="M3.83149 7.49185C4.19839 7.49185 4.53385 7.41846 4.83785 7.27732C5.14185 7.13617 5.40393 6.92728 5.62407 6.65629C5.84421 6.38529 6.01193 6.05784 6.13773 5.66828C6.25828 5.27873 6.32118 4.83836 6.32118 4.34154C6.32118 3.7939 6.26352 3.28578 6.14297 2.81719C6.02766 2.34859 5.84945 1.94775 5.61882 1.60336C5.3882 1.25897 5.09992 0.993618 4.75399 0.796018C4.40805 0.604063 4.00446 0.508085 3.54846 0.508085C3.18155 0.508085 2.8461 0.575834 2.5421 0.716977C2.2381 0.858121 1.97602 1.06137 1.75588 1.32672C1.53574 1.59207 1.36802 1.91952 1.24222 2.30907C1.12167 2.69863 1.05877 3.139 1.05877 3.63017C1.05877 4.17216 1.11643 4.68028 1.23174 5.15452C1.34705 5.62876 1.52002 6.03526 1.75064 6.37964C1.98126 6.72403 2.26954 6.99503 2.62072 7.19263C2.96666 7.39023 3.37025 7.48621 3.83149 7.48621M3.54846 0.033844C4.09881 0.033844 4.61247 0.129821 5.07896 0.327422C5.54544 0.519377 5.94904 0.790372 6.28973 1.14041C6.63042 1.49044 6.89774 1.90823 7.08643 2.39941C7.27512 2.89058 7.37471 3.43257 7.37471 4.02538C7.37471 4.36412 7.33802 4.69722 7.26464 5.01902C7.19126 5.34648 7.08643 5.65699 6.94491 5.95057C6.80339 6.24415 6.63042 6.5095 6.42601 6.75791C6.22159 7.00632 5.98573 7.22086 5.72365 7.39588C5.46158 7.57654 5.1733 7.71768 4.85357 7.81931C4.53385 7.92093 4.19315 7.97174 3.82625 7.97174C3.2759 7.97174 2.76224 7.87576 2.29575 7.68381C1.82926 7.49185 1.42567 7.2265 1.08498 6.87647C0.744285 6.52643 0.476971 6.10865 0.288279 5.62312C0.0943459 5.13758 0 4.58995 0 3.9915C0 3.65276 0.0366901 3.31966 0.11007 2.99221C0.18345 2.66475 0.288279 2.35424 0.429798 2.06066C0.571317 1.76708 0.744285 1.49609 0.943459 1.24768C1.14788 0.999264 1.3785 0.784726 1.64057 0.604063C1.90264 0.423399 2.19616 0.282256 2.51589 0.180633C2.83562 0.0790098 3.17631 0.0281982 3.54321 0.0281982" fill="#FF641A"/>
<path d="M11.0437 4.10442C11.1328 4.127 11.2219 4.13829 11.3163 4.14958C11.4106 4.15523 11.4997 4.16087 11.5836 4.16087C11.8299 4.16087 12.0606 4.12135 12.265 4.04231C12.4694 3.96327 12.6424 3.83907 12.7891 3.67534C12.9306 3.51161 13.0459 3.30837 13.1246 3.0656C13.2032 2.82283 13.2451 2.5349 13.2451 2.20745C13.2451 1.9421 13.2189 1.69933 13.1613 1.47915C13.1036 1.26461 13.025 1.0783 12.9097 0.92587C12.7996 0.773435 12.6581 0.66052 12.4904 0.575834C12.3226 0.491148 12.1235 0.451628 11.8981 0.451628C11.6727 0.451628 11.4892 0.46292 11.353 0.491148C11.2167 0.513731 11.1171 0.54196 11.0437 0.570189V4.09877V4.10442ZM11.0437 5.71909C11.0437 6.02396 11.0437 6.28367 11.0542 6.5095C11.0647 6.73533 11.0699 6.92728 11.0856 7.09665C11.0961 7.26038 11.1119 7.39588 11.1328 7.50879C11.1538 7.62171 11.1695 7.71204 11.1905 7.78543V7.80801H10.0007V7.78543C10.0216 7.71204 10.0374 7.61606 10.0583 7.50879C10.0793 7.40152 10.0898 7.26038 10.1003 7.09665C10.1107 6.93293 10.1212 6.74097 10.1317 6.51514C10.1422 6.28931 10.1422 6.02396 10.1422 5.71909V2.24697C10.1422 1.94775 10.1422 1.6824 10.1317 1.45657C10.1212 1.23074 10.1107 1.03878 10.1003 0.875058C10.0898 0.711332 10.0741 0.575834 10.0583 0.46292C10.0374 0.350005 10.0216 0.259673 10.0007 0.186279V0.163696L10.2103 0.186279C10.2732 0.191925 10.3414 0.19757 10.42 0.19757C10.4986 0.19757 10.5772 0.19757 10.6611 0.19757C10.7921 0.19757 10.9651 0.180633 11.1852 0.146759C11.4054 0.112884 11.6832 0.0959473 12.0291 0.0959473C12.3436 0.0959473 12.6424 0.141113 12.9097 0.237091C13.1822 0.327422 13.4128 0.46292 13.612 0.643583C13.8112 0.824246 13.9632 1.03878 14.0733 1.29849C14.1833 1.55819 14.241 1.84612 14.241 2.17358C14.241 2.42763 14.2095 2.66475 14.1519 2.88494C14.089 3.10512 14.0051 3.30272 13.8951 3.47774C13.785 3.6584 13.6487 3.81084 13.4967 3.95198C13.3395 4.08748 13.1665 4.20604 12.9778 4.29637L14.718 6.92728C14.8018 7.05713 14.8857 7.17569 14.9591 7.27167C15.0325 7.36765 15.1058 7.45233 15.174 7.52008C15.2421 7.58783 15.305 7.64429 15.3679 7.68945C15.4308 7.73462 15.4937 7.7685 15.5618 7.79108V7.81366H14.1257C14.1152 7.74591 14.0838 7.65558 14.0313 7.54267C13.9737 7.42975 13.9108 7.32248 13.8426 7.20957L12.0868 4.54478C12.0134 4.55043 11.9348 4.56172 11.8614 4.56172C11.7828 4.56737 11.7094 4.56737 11.6308 4.56737C11.5364 4.56737 11.4421 4.56737 11.3477 4.55607C11.2534 4.55043 11.159 4.53914 11.0647 4.51655V5.71345L11.0437 5.71909Z" fill="#FF641A"/>
<path d="M19.4929 4.8271C19.6869 4.8271 19.8808 4.8271 20.08 4.8271C20.2844 4.8271 20.4783 4.8271 20.6723 4.82145C20.8662 4.82145 21.0496 4.82145 21.2279 4.81581C21.4061 4.81581 21.5685 4.81581 21.7153 4.81016L20.3211 1.42272L18.9531 4.83275H19.4877L19.4929 4.8271ZM22.7059 7.80805V7.78546C22.7059 7.78546 22.7164 7.7403 22.7217 7.70642C22.7217 7.67255 22.7217 7.63867 22.7217 7.61044C22.7217 7.50318 22.7059 7.37897 22.6797 7.24347C22.6535 7.10797 22.5959 6.94425 22.5172 6.74665L21.9145 5.2957C21.731 5.29005 21.4847 5.2844 21.1754 5.2844H19.4196C19.1784 5.2844 18.9583 5.2844 18.7644 5.2957L18.1931 6.70148C18.1459 6.83133 18.0935 6.97812 18.0358 7.1362C17.9782 7.29428 17.952 7.45236 17.952 7.61044C17.952 7.65561 17.952 7.69513 17.9624 7.72336C17.9677 7.75159 17.9729 7.77417 17.9834 7.78546V7.80805H16.9718V7.78546C17.0295 7.71771 17.1081 7.59915 17.1972 7.42414C17.2863 7.24912 17.3859 7.03458 17.4907 6.77488L20.3368 0H20.7352L23.4293 6.51517C23.4922 6.66761 23.5551 6.8144 23.6284 6.96119C23.6966 7.10797 23.7595 7.23218 23.8171 7.3451C23.8748 7.45801 23.9272 7.55399 23.9744 7.63303C24.0215 7.71207 24.053 7.76288 24.0687 7.77982V7.8024H22.7112L22.7059 7.80805Z" fill="#FF641A"/>
<path d="M26.3278 0.158081L31.4382 6.00141V2.247C31.4382 1.94778 31.4382 1.68243 31.4277 1.4566C31.4225 1.23077 31.412 1.03317 31.3962 0.869443C31.3805 0.705717 31.3648 0.570219 31.3491 0.457305C31.3281 0.350036 31.3124 0.254058 31.2914 0.180664V0.158081H32.172V0.180664C32.151 0.254058 32.1353 0.350036 32.1196 0.457305C32.1038 0.570219 32.0881 0.705717 32.0724 0.869443C32.0619 1.03317 32.0514 1.23077 32.0409 1.4566C32.0357 1.68243 32.0305 1.94778 32.0305 2.247V7.90967H31.8575L26.7471 2.07198V5.71913C26.7471 6.024 26.7471 6.2837 26.7576 6.50953C26.7628 6.73536 26.7733 6.92731 26.7838 7.09668C26.7995 7.26041 26.8152 7.39591 26.831 7.50882C26.8467 7.61609 26.8624 7.71207 26.8834 7.78546V7.80805H26.0028V7.78546C26.0238 7.71207 26.0395 7.61609 26.0605 7.50882C26.0762 7.39591 26.0919 7.26041 26.1076 7.09668C26.1234 6.93296 26.1286 6.741 26.1391 6.50953C26.1443 6.2837 26.1496 6.01835 26.1496 5.71913V2.247C26.1496 1.94778 26.1496 1.68243 26.1391 1.4566C26.1338 1.23077 26.1234 1.03317 26.1076 0.869443C26.0919 0.705717 26.0762 0.570219 26.0605 0.457305C26.0395 0.350036 26.0238 0.254058 26.0028 0.180664V0.158081H26.3225H26.3278Z" fill="#FF641A"/>
<path d="M41.1191 6.9386C41.1191 6.97812 41.1191 7.01764 41.1086 7.06281C41.0982 7.10798 41.0824 7.14185 41.051 7.17008C40.9042 7.28864 40.7417 7.40155 40.5688 7.50318C40.3958 7.6048 40.2071 7.69513 40.0079 7.76853C39.8035 7.84192 39.5886 7.89838 39.358 7.94354C39.1221 7.98306 38.8758 8.00565 38.6085 8.00565C38.0057 8.00565 37.4553 7.90967 36.9627 7.71771C36.4647 7.5314 36.0402 7.26041 35.6837 6.91037C35.3273 6.56034 35.0548 6.14256 34.8556 5.65702C34.6617 5.16584 34.5621 4.62385 34.5621 4.02541C34.5621 3.68666 34.604 3.35356 34.6826 3.03176C34.7612 2.70431 34.8818 2.39379 35.039 2.10021C35.1963 1.80663 35.385 1.53564 35.6156 1.28723C35.8462 1.03881 36.1031 0.824277 36.3966 0.643614C36.6901 0.46295 37.0098 0.321807 37.3662 0.220184C37.7174 0.118561 38.1 0.067749 38.5089 0.067749C38.6661 0.067749 38.8286 0.0733948 38.9963 0.0903319C39.1641 0.107269 39.3265 0.129852 39.489 0.158081C39.6515 0.186309 39.8088 0.225829 39.9555 0.26535C40.1075 0.310515 40.249 0.355681 40.3853 0.406493L40.7208 1.3945L40.6788 1.41708C40.5478 1.29287 40.401 1.17431 40.2333 1.07269C40.0656 0.96542 39.8821 0.875088 39.6934 0.796048C39.5048 0.717008 39.3003 0.654905 39.0907 0.615385C38.881 0.570219 38.6661 0.547636 38.4512 0.547636C38.0371 0.547636 37.6545 0.615385 37.3086 0.756528C36.9627 0.897671 36.6639 1.10092 36.4123 1.36627C36.1607 1.63162 35.9668 1.95907 35.8305 2.34862C35.689 2.73818 35.6208 3.17855 35.6208 3.66973C35.6208 4.21172 35.6837 4.71983 35.82 5.18278C35.9511 5.64573 36.1502 6.05222 36.4071 6.39097C36.6691 6.72971 36.9941 7.00071 37.3872 7.19266C37.7803 7.38462 38.2363 7.48059 38.7605 7.48059C38.9911 7.48059 39.2007 7.46366 39.379 7.42414C39.5624 7.38462 39.7144 7.3338 39.8402 7.27735C39.966 7.22089 40.0603 7.15314 40.1232 7.08539C40.1861 7.01764 40.2176 6.95554 40.2176 6.89344V6.68455C40.2176 6.43613 40.2176 6.2216 40.2071 6.04093C40.2019 5.86027 40.1914 5.70219 40.1757 5.56669C40.1599 5.43119 40.1494 5.31828 40.1285 5.2223C40.1128 5.12632 40.0918 5.03599 40.0708 4.95695V4.93437H41.2606V4.95695C41.2397 5.03035 41.2187 5.12068 41.203 5.2223C41.182 5.32392 41.1663 5.44248 41.1558 5.58363C41.1401 5.72477 41.1348 5.88285 41.1244 6.07481C41.1191 6.26112 41.1139 6.47565 41.1139 6.72407V6.94425L41.1191 6.9386Z" fill="#FF641A"/>
<path d="M44.4736 0.152435C44.8824 0.152435 45.2546 0.146789 45.5953 0.141144C45.936 0.141144 46.2295 0.129852 46.4654 0.118561C46.7065 0.107269 46.8689 0.0959777 46.958 0.0790405L46.7169 0.790403C46.6069 0.756528 46.4811 0.7283 46.3343 0.705717C46.2085 0.683134 46.0565 0.666197 45.8731 0.643614C45.6949 0.621031 45.4852 0.615385 45.2493 0.615385C45.1707 0.615385 45.0764 0.615385 44.9611 0.626676C44.851 0.626676 44.7462 0.637968 44.6413 0.643614C44.5208 0.649259 44.4002 0.654905 44.2797 0.666196V3.57375C44.6204 3.57375 44.9296 3.56246 45.2022 3.53987C45.4747 3.52294 45.7106 3.506 45.8993 3.48342C46.1247 3.46083 46.3238 3.43825 46.4968 3.41002L46.3448 4.18349C46.1142 4.14961 45.8836 4.12138 45.6477 4.09315C45.4433 4.07057 45.2179 4.04799 44.9768 4.02541C44.7357 4.00847 44.5051 3.99718 44.2797 3.99718V7.33945C44.6675 7.33945 45.0292 7.32251 45.3542 7.28299C45.6791 7.24912 45.9674 7.2096 46.2138 7.15879C46.4968 7.10798 46.7589 7.05152 46.9947 6.98377L46.8532 7.84757C46.8113 7.84757 46.7536 7.84192 46.675 7.83627C46.5964 7.83627 46.5073 7.83063 46.4077 7.82498C46.3081 7.82498 46.2085 7.81934 46.0984 7.81369C45.9884 7.81369 45.8888 7.81369 45.7944 7.81369C45.7001 7.81369 45.611 7.81369 45.5376 7.80805C45.4642 7.80805 45.4066 7.80805 45.3751 7.80805H43.2314V7.78546C43.2524 7.71207 43.2681 7.61609 43.289 7.50882C43.31 7.39591 43.3257 7.26041 43.3362 7.09668C43.3519 6.93296 43.3624 6.741 43.3677 6.50953C43.3729 6.2837 43.3781 6.01835 43.3781 5.71913V2.247C43.3781 1.94778 43.3781 1.68243 43.3677 1.4566C43.3624 1.23077 43.3519 1.03317 43.3362 0.869443C43.3257 0.705717 43.31 0.564573 43.289 0.457304C43.2681 0.350036 43.2524 0.254058 43.2314 0.180664V0.158081C43.6455 0.158081 44.0543 0.158081 44.4631 0.152435" fill="#FF641A"/>
</g>
<defs>
<clipPath id="clip0_322_2073">
<rect width="47" height="8" fill="white"/>
</clipPath>
</defs>
</svg>
