<svg width="36" height="8" viewBox="0 0 36 8" fill="none" xmlns="http://www.w3.org/2000/svg">
<g clip-path="url(#clip0_322_2070)">
<path d="M1.9866 4.0371C1.75634 4.0371 1.56893 4.04281 1.41364 4.06565C1.25835 4.08278 1.14055 4.09992 1.05487 4.11705V5.73874C1.05487 6.15559 1.06022 6.4982 1.07629 6.77229C1.087 7.04067 1.10842 7.26337 1.12984 7.43468C1.25835 7.45181 1.38686 7.46894 1.51002 7.48036C1.63854 7.49749 1.74028 7.5032 1.81524 7.5032C2.44175 7.5032 2.8969 7.35473 3.19142 7.0578C3.48057 6.76087 3.62515 6.30405 3.62515 5.68735C3.62515 5.44181 3.59302 5.22483 3.52341 5.01926C3.4538 4.8194 3.35206 4.64238 3.21819 4.49963C3.08432 4.35116 2.91297 4.24267 2.70413 4.15702C2.50065 4.07707 2.25969 4.0371 1.98124 4.0371M1.06022 3.63739C1.15661 3.64881 1.23693 3.65452 1.3119 3.65452C1.38686 3.65452 1.46719 3.65452 1.54751 3.65452C1.77776 3.65452 1.98124 3.62026 2.16866 3.55173C2.35607 3.48321 2.51672 3.38043 2.65059 3.23767C2.78445 3.10063 2.8862 2.92361 2.96116 2.71804C3.03613 2.50677 3.07361 2.26694 3.07361 1.98714C3.07361 1.75302 3.04684 1.54174 2.99329 1.3533C2.93974 1.16487 2.85942 1.00498 2.75233 0.867938C2.64523 0.736603 2.51672 0.633819 2.36143 0.559586C2.20614 0.485354 2.02943 0.451092 1.83131 0.451092C1.70279 0.451092 1.59034 0.456803 1.49931 0.468223C1.40293 0.479643 1.32261 0.491064 1.25835 0.508195C1.18338 0.519615 1.11377 0.542456 1.06022 0.559586V3.63168V3.63739ZM0.144562 2.25552C0.144562 1.95288 0.144562 1.69021 0.133852 1.4618C0.128498 1.23339 0.117788 1.03924 0.101724 0.873648C0.0910144 0.708052 0.0749502 0.571007 0.0535312 0.456803C0.0374669 0.348309 0.0160479 0.251235 -0.00537109 0.177002V0.154162C0.0588859 0.154162 0.133852 0.154162 0.203464 0.154162C0.267721 0.154162 0.337333 0.154162 0.417654 0.154162H0.658618C0.781777 0.154162 0.94242 0.142741 1.15126 0.11419C1.35474 0.0913494 1.62247 0.0742188 1.94911 0.0742188C2.24898 0.0742188 2.52743 0.11419 2.78445 0.199843C3.04148 0.285496 3.26103 0.405411 3.44309 0.559586C3.63051 0.713762 3.77508 0.907909 3.88218 1.14203C3.98927 1.37044 4.04282 1.63311 4.04282 1.92433C4.04282 2.16986 4.01069 2.39256 3.94644 2.58671C3.88218 2.78086 3.79115 2.95216 3.6787 3.09492C3.56089 3.23767 3.42167 3.35759 3.26103 3.46037C3.10039 3.56316 2.91832 3.63739 2.72555 3.69449C3.00935 3.74017 3.27174 3.82011 3.50199 3.92861C3.7376 4.0371 3.94108 4.17415 4.10708 4.33974C4.27843 4.50534 4.40694 4.69378 4.49798 4.91647C4.58901 5.13346 4.6372 5.379 4.6372 5.64738C4.6372 6.40113 4.40694 6.96644 3.94108 7.3376C3.47522 7.71448 2.7791 7.90291 1.85273 7.90291C1.75099 7.90291 1.63318 7.90291 1.49931 7.89149C1.36545 7.88007 1.22622 7.87436 1.087 7.86294C0.947775 7.85152 0.813906 7.8401 0.680037 7.83439C0.546168 7.82297 0.428364 7.82297 0.326624 7.82297H-0.00537109V7.80013C0.0160479 7.7259 0.0321122 7.63453 0.0535312 7.52033C0.0695954 7.41184 0.0856597 7.27479 0.101724 7.10919C0.112433 6.9436 0.123143 6.74945 0.133852 6.52104C0.139207 6.29263 0.144562 6.02996 0.144562 5.72732V2.25552Z" fill="#231815"/>
<path d="M7.94112 7.36046C8.33737 7.36046 8.70149 7.34332 9.03349 7.30906C9.36548 7.2748 9.65464 7.23483 9.90096 7.18915C10.1901 7.13776 10.4525 7.08066 10.6881 7.01213L10.5435 7.88008C10.5007 7.88008 10.4418 7.87437 10.3615 7.86866C10.2811 7.86866 10.1901 7.86295 10.0937 7.85724C9.99734 7.85724 9.89025 7.85153 9.78315 7.85153C9.67606 7.85153 9.57432 7.85153 9.47258 7.85153C9.37619 7.85153 9.29051 7.85153 9.21555 7.85153C9.14058 7.85153 9.08703 7.85153 9.0549 7.85153H6.88623V7.82869C6.90765 7.75446 6.92371 7.6631 6.94513 7.54889C6.9612 7.4404 6.97726 7.30335 6.99333 7.13776C7.00404 6.97216 7.01474 6.77801 7.02545 6.55532C7.03081 6.32691 7.03616 6.06424 7.03616 5.7616V2.25553C7.03616 1.95289 7.03616 1.69022 7.02545 1.46181C7.0201 1.2334 7.00939 1.03926 6.99333 0.873661C6.98262 0.708065 6.96655 0.57102 6.94513 0.456816C6.92371 0.348322 6.90765 0.251248 6.88623 0.177016V0.154175H8.09105V0.177016C8.06963 0.251248 8.05357 0.342612 8.03215 0.456816C8.01608 0.56531 8.00002 0.708065 7.98931 0.873661C7.9786 1.03926 7.96789 1.2334 7.95718 1.46181C7.94647 1.69022 7.94647 1.95289 7.94647 2.25553V7.36046H7.94112Z" fill="#231815"/>
<path d="M15.0308 4.84226C15.2236 4.84226 15.4217 4.84226 15.6305 4.84226C15.834 4.84226 16.0375 4.84226 16.2303 4.84226C16.4284 4.84226 16.6158 4.84226 16.7979 4.84226C16.9799 4.84226 17.1406 4.84226 17.2905 4.83654L15.8768 1.43897L14.49 4.85939H15.0308V4.84226ZM18.2865 7.82869V7.80585C18.2865 7.80585 18.2972 7.76017 18.3025 7.72591C18.3079 7.69165 18.3025 7.65739 18.3025 7.62884C18.3025 7.52034 18.2865 7.39472 18.2597 7.26338C18.2329 7.12634 18.1794 6.96074 18.0991 6.76088L17.4886 5.30478C17.3012 5.29907 17.0495 5.29336 16.739 5.29336H14.9612C14.7149 5.29336 14.4953 5.29336 14.2972 5.30478L13.7189 6.7152C13.6707 6.84654 13.6171 6.98929 13.5582 7.14918C13.4993 7.30906 13.4726 7.46324 13.4726 7.62313C13.4726 7.66881 13.4726 7.70878 13.4833 7.73733C13.4886 7.76588 13.494 7.78872 13.5047 7.80014V7.82298H12.4819V7.80014C12.5408 7.73162 12.6158 7.61171 12.7068 7.4404C12.7979 7.26909 12.8943 7.05211 13.0013 6.78944L15.8822 0H16.2838L19.0094 6.53819C19.0736 6.69236 19.1379 6.84083 19.2075 6.98358C19.2771 7.12634 19.3414 7.25767 19.4003 7.37188C19.4592 7.48608 19.5127 7.58315 19.5609 7.6631C19.6091 7.74304 19.6412 7.78872 19.6573 7.81156V7.8344H18.2811L18.2865 7.82869Z" fill="#231815"/>
<path d="M27.411 1.3362L27.3682 1.35904C27.1058 1.10208 26.7898 0.896516 26.4257 0.74234C26.0616 0.588165 25.6546 0.513932 25.2155 0.513932C24.7765 0.513932 24.407 0.582455 24.0536 0.72521C23.7001 0.867965 23.4003 1.07353 23.1486 1.3362C22.8969 1.60458 22.6988 1.93006 22.5596 2.31836C22.4204 2.70665 22.3508 3.14634 22.3508 3.64313C22.3508 4.19131 22.415 4.69951 22.5542 5.16775C22.6881 5.6417 22.8862 6.04712 23.154 6.39545C23.4217 6.74377 23.7483 7.01215 24.1446 7.21201C24.5408 7.41186 25.0067 7.50894 25.5315 7.50894C25.7242 7.50894 25.9117 7.48609 26.1044 7.44612C26.2972 7.40615 26.4793 7.33763 26.656 7.25769C26.8327 7.17203 26.9987 7.07496 27.154 6.95505C27.3093 6.83513 27.4485 6.69809 27.577 6.54391L27.6305 6.58388L27.2289 7.67453C26.9773 7.77732 26.6988 7.85726 26.3989 7.91436C26.0937 7.97146 25.7885 8.00001 25.4833 8.00001C24.8621 8.00001 24.2999 7.90294 23.7858 7.7145C23.2718 7.52607 22.8273 7.25198 22.4578 6.90365C22.0884 6.55533 21.7992 6.13278 21.5957 5.6417C21.3869 5.15062 21.2852 4.60815 21.2852 4.00858C21.2852 3.67168 21.328 3.33477 21.4083 3.00929C21.4886 2.68381 21.6118 2.36975 21.7671 2.07282C21.9224 1.77589 22.1205 1.5018 22.3508 1.25626C22.581 1.01072 22.8434 0.793732 23.1433 0.611006C23.4378 0.428279 23.7644 0.285524 24.1232 0.18274C24.4819 0.0799563 24.8675 0.0285645 25.2798 0.0285645C25.9277 0.0285645 26.5275 0.131348 27.079 0.342626L27.4217 1.33049L27.411 1.3362Z" fill="#231815"/>
<path d="M29.8634 7.81156C29.8849 7.73733 29.9009 7.64597 29.9224 7.53176C29.9384 7.42327 29.9545 7.28622 29.9705 7.12063C29.9813 6.95503 29.992 6.76088 30.0027 6.53247C30.008 6.30407 30.0134 6.0414 30.0134 5.73876V2.25553C30.0134 1.95289 30.0134 1.69022 30.0027 1.46181C29.9973 1.2334 29.9866 1.03926 29.9705 0.873661C29.9598 0.708065 29.9438 0.57102 29.9224 0.456816C29.9063 0.348322 29.8849 0.251248 29.8634 0.177016V0.154175H31.0683V0.177016C31.0468 0.251248 31.0308 0.342612 31.0094 0.456816C30.9879 0.56531 30.9772 0.708065 30.9665 0.873661C30.9558 1.03926 30.9451 1.2334 30.9344 1.46181C30.9237 1.69022 30.9237 1.95289 30.9237 2.25553V3.44896L33.8581 0.896502C34.1847 0.610991 34.3507 0.365452 34.3507 0.159885H35.7644V0.182726C35.5663 0.234118 35.3681 0.331191 35.1647 0.468236C34.9612 0.610991 34.747 0.782298 34.5167 0.982155L31.925 3.29479L35.0468 6.94361C35.1754 7.08637 35.2878 7.20628 35.3788 7.29764C35.4699 7.39472 35.5502 7.46895 35.6198 7.53176C35.6894 7.59457 35.7537 7.64597 35.8126 7.68594C35.8715 7.72591 35.9304 7.76588 35.9946 7.80585V7.82869H34.5221C34.506 7.79443 34.4846 7.75446 34.4525 7.70307C34.4203 7.65168 34.3829 7.60028 34.34 7.54889C34.2972 7.4975 34.2543 7.4404 34.2062 7.3833C34.158 7.32619 34.1098 7.2748 34.0669 7.22341L30.9183 3.54604V5.73876C30.9183 6.0414 30.9183 6.30407 30.929 6.53247C30.9344 6.76088 30.9451 6.95503 30.9612 7.12063C30.9719 7.28622 30.9879 7.42327 31.004 7.53176C31.0201 7.64025 31.0415 7.73733 31.0629 7.81156V7.8344H29.8581V7.81156H29.8634Z" fill="#231815"/>
</g>
<defs>
<clipPath id="clip0_322_2070">
<rect width="36" height="8" fill="white"/>
</clipPath>
</defs>
</svg>
