<svg width="63" height="8" viewBox="0 0 63 8" fill="none" xmlns="http://www.w3.org/2000/svg">
<g clip-path="url(#clip0_322_2071)">
<path d="M1.4562 0.153926C1.93748 0.153926 2.38175 0.148224 2.78282 0.142521C3.18389 0.142521 3.52943 0.131117 3.81326 0.119713C4.0971 0.108309 4.28838 0.0969049 4.39327 0.0740967L4.10944 0.792557C3.97986 0.758345 3.83177 0.729834 3.659 0.707026C3.51092 0.684218 3.33198 0.667112 3.11602 0.644303C2.90005 0.627197 2.65941 0.615793 2.38175 0.615793C2.28919 0.615793 2.17813 0.615793 2.04238 0.621495C1.9128 0.621495 1.78323 0.632899 1.66599 0.638601C1.52407 0.644303 1.38215 0.655707 1.24024 0.66141V3.60938C1.64131 3.60938 2.00536 3.59797 2.33238 3.57517C2.65941 3.55806 2.93091 3.54095 3.15921 3.52385C3.42453 3.50104 3.65901 3.47823 3.86263 3.44972L3.68369 4.2309C3.41219 4.19669 3.1407 4.16818 2.85686 4.13967C2.61622 4.11686 2.3509 4.09405 2.06706 4.07125C1.78322 4.04844 1.50556 4.04274 1.24641 4.04274V7.42976C1.70918 7.42976 2.12876 7.41266 2.51749 7.37274C2.90622 7.33853 3.23942 7.29291 3.52943 7.2473C3.8688 7.19598 4.17114 7.13896 4.44881 7.07053L4.28221 7.94865C4.23285 7.94865 4.16497 7.94295 4.07242 7.93725C3.97986 7.93725 3.87497 7.93154 3.75773 7.92584C3.64049 7.92584 3.52326 7.92014 3.39368 7.92014C3.2641 7.92014 3.14687 7.92014 3.0358 7.92014C2.92474 7.92014 2.81984 7.92014 2.73346 7.92014C2.64707 7.92014 2.58537 7.92014 2.54218 7.92014H0V7.89733C0.0246813 7.82321 0.0493626 7.72627 0.0678736 7.61793C0.0863846 7.50389 0.104896 7.36704 0.123407 7.20168C0.135747 7.03632 0.148088 6.84245 0.160429 6.60867C0.166599 6.38058 0.172769 6.11259 0.172769 5.80467V2.2808C0.172769 1.97288 0.172769 1.70489 0.160429 1.47681C0.154258 1.24872 0.141918 1.04915 0.123407 0.88379C0.104896 0.71843 0.0863846 0.575879 0.0678736 0.461837C0.0431923 0.347796 0.0246813 0.256563 0 0.182436V0.159628C0.487456 0.159628 0.974912 0.159628 1.4562 0.159628" fill="#29D3CA"/>
<path d="M7.15143 7.89167C7.19463 7.83465 7.24399 7.74912 7.29952 7.63508C7.35505 7.52104 7.39825 7.37849 7.4291 7.20742C7.47229 6.95653 7.52165 6.67143 7.57102 6.35781C7.62038 6.0442 7.67591 5.71348 7.73762 5.36566C7.79315 5.01783 7.84868 4.6643 7.90421 4.30507C7.95975 3.94014 8.01528 3.58661 8.07081 3.23308C8.12018 2.87955 8.17571 2.54313 8.22507 2.21811C8.27443 1.8931 8.31763 1.59089 8.35465 1.32289C8.39167 1.05489 8.42869 0.815406 8.45337 0.615833C8.47805 0.416261 8.49657 0.268007 8.50891 0.16537H9.25552L12.9392 6.52317L16.5859 0.159668H17.1412L18.1038 6.5802C18.1346 6.77977 18.1593 6.95653 18.1902 7.09908C18.221 7.24164 18.2519 7.36708 18.2827 7.46972C18.3136 7.57236 18.3444 7.65789 18.3753 7.72631C18.4061 7.79474 18.4308 7.84605 18.4616 7.89167V7.91448H16.9869V7.89167C17.0054 7.85176 17.024 7.78903 17.0425 7.6978C17.061 7.60657 17.0672 7.49823 17.0672 7.37278C17.0672 7.32717 17.0672 7.27585 17.061 7.23023C17.061 7.18461 17.0548 7.12759 17.0425 7.07057L16.2959 1.8931L12.8405 7.89167L12.4394 7.84605L8.95934 1.83608C8.82359 2.69139 8.70019 3.47827 8.60146 4.20243C8.55827 4.51034 8.51508 4.82396 8.47188 5.13187C8.42869 5.43978 8.39167 5.72489 8.35465 5.99288C8.3238 6.26088 8.29294 6.49466 8.27443 6.69994C8.25592 6.90521 8.24358 7.05347 8.24358 7.1504C8.24358 7.27015 8.24358 7.37848 8.25592 7.47542C8.26209 7.57236 8.26826 7.64648 8.2806 7.71491C8.29294 7.78903 8.30529 7.85746 8.31763 7.91448H7.14526V7.89167H7.15143Z" fill="#29D3CA"/>
<path d="M23.077 0.153926C23.5583 0.153926 24.0026 0.148224 24.4037 0.142521C24.8047 0.142521 25.1503 0.131117 25.4341 0.119713C25.7179 0.108309 25.9092 0.0969049 26.0141 0.0740967L25.7303 0.792557C25.6007 0.758345 25.4526 0.729834 25.2799 0.707026C25.1318 0.684218 24.9528 0.667112 24.7369 0.644303C24.5209 0.627197 24.2803 0.615793 24.0026 0.615793C23.91 0.615793 23.799 0.615793 23.6632 0.621495C23.5336 0.621495 23.4041 0.632899 23.2868 0.638601C23.1449 0.644303 23.003 0.655708 22.8611 0.66141V3.60938C23.2622 3.60938 23.6262 3.59797 23.9532 3.57517C24.2803 3.55806 24.5518 3.54095 24.7801 3.52385C25.0454 3.50104 25.2798 3.47823 25.4835 3.44972L25.3045 4.2309C25.033 4.19669 24.7615 4.16818 24.4777 4.13967C24.2371 4.11686 23.9717 4.09405 23.6879 4.07125C23.4041 4.04844 23.1326 4.04274 22.8673 4.04274V7.42976C23.33 7.42976 23.7496 7.41266 24.1383 7.37274C24.5271 7.33853 24.8664 7.29291 25.1503 7.2473C25.4896 7.19598 25.792 7.13896 26.0697 7.07053L25.8969 7.94865C25.8537 7.94865 25.7796 7.94295 25.6871 7.93725C25.5945 7.93725 25.4896 7.93155 25.3724 7.92584C25.2552 7.92584 25.1379 7.92014 25.0084 7.92014C24.8788 7.92014 24.7615 7.92014 24.6505 7.92014C24.5394 7.92014 24.4345 7.92014 24.3481 7.92014C24.2617 7.92014 24.1939 7.92014 24.1569 7.92014H21.627V7.89733C21.6517 7.82321 21.6764 7.72627 21.6949 7.61793C21.7196 7.50389 21.7381 7.36704 21.7504 7.20168C21.7689 7.03632 21.7751 6.84245 21.7874 6.60867C21.7936 6.38058 21.7998 6.11259 21.7998 5.80467V2.2808C21.7998 1.97289 21.7998 1.70489 21.7874 1.47681C21.7813 1.24872 21.7689 1.04915 21.7504 0.88379C21.7381 0.71843 21.7196 0.575879 21.6949 0.461837C21.6764 0.347796 21.6517 0.256563 21.627 0.182436V0.159628C22.1145 0.159628 22.6019 0.159628 23.0832 0.159628" fill="#29D3CA"/>
<path d="M30.5863 4.16249C30.6912 4.1853 30.7961 4.2024 30.9072 4.2081C31.0182 4.21951 31.1231 4.21951 31.2218 4.21951C31.518 4.21951 31.7833 4.17959 32.024 4.09977C32.2646 4.01994 32.4744 3.89449 32.641 3.72913C32.8076 3.56377 32.9434 3.3585 33.0359 3.10761C33.1285 2.86242 33.1778 2.57161 33.1778 2.24089C33.1778 1.97289 33.147 1.72771 33.0791 1.50532C33.0112 1.28865 32.9125 1.10048 32.7829 0.946522C32.6534 0.792567 32.4868 0.672823 32.2893 0.592994C32.0919 0.507463 31.8574 0.467549 31.5921 0.467549C31.3267 0.467549 31.1046 0.478953 30.9504 0.507463C30.7899 0.530272 30.6665 0.558782 30.5863 0.587292V4.16249ZM30.5863 5.79898C30.5863 6.10689 30.5863 6.37489 30.5986 6.60297C30.611 6.83106 30.6172 7.03063 30.6357 7.19599C30.648 7.36135 30.6665 7.4982 30.685 7.61224C30.7035 7.72628 30.7282 7.81751 30.7529 7.89164V7.91445H29.3461V7.89164C29.3708 7.81751 29.3893 7.72058 29.4139 7.61224C29.4325 7.4982 29.451 7.36135 29.4633 7.19599C29.4756 7.03063 29.488 6.83676 29.5003 6.60868C29.5127 6.38059 29.5127 6.1126 29.5127 5.80468V2.28081C29.5127 1.97289 29.5127 1.7049 29.5003 1.47681C29.488 1.24873 29.4756 1.04916 29.4633 0.8838C29.451 0.71844 29.4325 0.575888 29.4139 0.461847C29.3893 0.347805 29.3708 0.256572 29.3461 0.176743V0.153935L29.5929 0.176743C29.6669 0.182445 29.7471 0.188147 29.8397 0.188147C29.9323 0.188147 30.0248 0.188147 30.1235 0.188147C30.2778 0.188147 30.4814 0.171041 30.7406 0.136829C30.9997 0.102616 31.3329 0.0855103 31.734 0.0855103C32.1104 0.0855103 32.4559 0.131127 32.7768 0.228062C33.0976 0.319295 33.3691 0.456145 33.6036 0.638611C33.8381 0.821077 34.0232 1.03776 34.1528 1.30005C34.2823 1.56235 34.3502 1.85885 34.3502 2.18957C34.3502 2.45187 34.3132 2.69135 34.2391 2.90803C34.1651 3.13041 34.0664 3.32999 33.9368 3.51245C33.8072 3.69492 33.6468 3.85458 33.4679 3.99143C33.2827 4.12828 33.0791 4.24802 32.8508 4.33925L34.9055 7.00212C35.0043 7.13327 35.103 7.25301 35.1894 7.34994C35.2758 7.44688 35.3621 7.53241 35.4424 7.60083C35.5226 7.66926 35.5966 7.72628 35.6768 7.7719C35.7509 7.81751 35.8249 7.85173 35.9051 7.88024V7.90304H34.2145C34.2021 7.83462 34.1651 7.74339 34.1034 7.62935C34.0355 7.5153 33.9615 7.40126 33.8751 7.29292L31.8019 4.59585C31.7093 4.60155 31.6229 4.60725 31.5304 4.61295C31.4378 4.61295 31.3453 4.61865 31.2527 4.61865C31.1416 4.61865 31.0306 4.61865 30.9195 4.60725C30.8084 4.60155 30.6974 4.58444 30.5801 4.56734V5.78188L30.5863 5.79898Z" fill="#29D3CA"/>
<path d="M40.5946 4.8924C40.8229 4.8924 41.0512 4.8924 41.2918 4.8924C41.5325 4.8924 41.7608 4.8924 41.9891 4.8924C42.2174 4.8924 42.4395 4.8924 42.6493 4.8924C42.8591 4.8924 43.0504 4.8924 43.2231 4.8867L41.5757 1.45405L39.959 4.90951H40.5884L40.5946 4.8924ZM44.3893 7.91449V7.89169C44.3893 7.89169 44.4017 7.84607 44.4078 7.81186C44.4078 7.77765 44.4078 7.74343 44.4078 7.71492C44.4078 7.60658 44.3893 7.48114 44.3585 7.34429C44.3276 7.20744 44.2598 7.04208 44.1672 6.8368L43.4576 5.36567C43.2417 5.35997 42.9455 5.35427 42.5876 5.35427H40.5144C40.2244 5.35427 39.9652 5.35427 39.7369 5.36567L39.0643 6.79119C39.0026 6.92234 38.9409 7.07059 38.8792 7.23025C38.8175 7.3899 38.7805 7.54956 38.7805 7.70922C38.7805 7.75484 38.7805 7.79475 38.7928 7.82326C38.799 7.85177 38.8052 7.87458 38.8175 7.88598V7.90879H37.6205V7.88598C37.6884 7.81756 37.7809 7.69782 37.8858 7.52105C37.9907 7.34429 38.1079 7.12761 38.2313 6.86531L41.588 -0.00567627H42.057L45.2408 6.59732C45.3149 6.75127 45.3889 6.90523 45.4753 7.04778C45.5555 7.19603 45.6296 7.32718 45.6974 7.44122C45.7653 7.55526 45.827 7.6522 45.8826 7.73203C45.9381 7.81186 45.9751 7.86318 45.9936 7.88028V7.90309H44.3893V7.91449Z" fill="#29D3CA"/>
<path d="M49.8748 7.43551C50.3375 7.43551 50.7571 7.4184 51.1458 7.38419C51.5346 7.34997 51.8678 7.30436 52.1578 7.25874C52.491 7.20742 52.7995 7.1504 53.0771 7.08198L52.9106 7.9601C52.8612 7.9601 52.7933 7.95439 52.7008 7.94869C52.6082 7.94869 52.5033 7.94299 52.3861 7.93729C52.2688 7.93729 52.1516 7.93159 52.022 7.93159C51.8924 7.93159 51.7752 7.93159 51.6641 7.93159C51.5531 7.93159 51.4482 7.93159 51.3618 7.93159C51.2754 7.93159 51.2137 7.93159 51.1705 7.93159H48.6407V7.90878C48.6654 7.83465 48.6839 7.73772 48.7086 7.62938C48.7332 7.52104 48.7518 7.37848 48.7641 7.21312C48.7764 7.04776 48.7888 6.84819 48.8011 6.62011C48.8073 6.39203 48.8135 6.12403 48.8135 5.81612V2.28084C48.8135 1.97293 48.8135 1.70493 48.8011 1.47685C48.7888 1.24876 48.7826 1.04919 48.7641 0.88383C48.7518 0.718471 48.7332 0.575919 48.7086 0.461877C48.6839 0.347836 48.6654 0.256603 48.6407 0.182476V0.159668H50.0475V0.182476C50.0228 0.256603 50.0043 0.353538 49.9796 0.461877C49.9611 0.575919 49.9426 0.712768 49.9303 0.88383C49.9179 1.04919 49.9056 1.24876 49.8933 1.47685C49.8809 1.70493 49.8809 1.97293 49.8809 2.28084V7.43551H49.8748Z" fill="#29D3CA"/>
<path d="M56.9521 0.627242C56.946 1.03209 56.9398 1.41983 56.9275 1.80187C56.9275 1.96153 56.9213 2.13259 56.9213 2.29795C56.9213 2.46901 56.9213 2.63437 56.9213 2.79973C56.9213 2.96509 56.9213 3.11905 56.9213 3.2673C56.9213 3.41555 56.9213 3.5467 56.9213 3.66644C56.9213 3.90593 56.9213 4.20244 56.9213 4.54456C56.9213 4.88669 56.9275 5.24021 56.9336 5.59944C56.9336 5.95867 56.946 6.3065 56.9583 6.63722C56.9707 6.96794 56.983 7.24164 57.0015 7.46402C57.057 7.46972 57.1311 7.48113 57.2236 7.48683C57.3162 7.49823 57.4087 7.50393 57.5136 7.50964C57.6185 7.50964 57.7173 7.52104 57.8098 7.52104C57.9085 7.52104 57.9888 7.52104 58.0566 7.52104C58.3281 7.52104 58.612 7.50393 58.8958 7.46972C59.1858 7.43551 59.4635 7.37279 59.7288 7.27585C59.9941 7.18462 60.2471 7.05347 60.4877 6.88811C60.7284 6.72275 60.932 6.51178 61.1109 6.25518C61.2899 5.99289 61.4256 5.68498 61.5305 5.31434C61.6354 4.94941 61.6848 4.51605 61.6848 4.01997C61.6848 3.46687 61.6107 2.97649 61.4688 2.54884C61.3269 2.12118 61.1109 1.75625 60.8333 1.45974C60.5556 1.16324 60.2101 0.940856 59.7967 0.7869C59.3833 0.632944 58.9143 0.558817 58.3775 0.558817C58.2726 0.558817 58.1554 0.558817 58.0196 0.564519C57.89 0.564519 57.7543 0.575923 57.6247 0.581625C57.4951 0.581625 57.3717 0.593029 57.2545 0.604434C57.1373 0.615838 57.0447 0.62154 56.9707 0.62154M55.6687 0.142566C55.7551 0.142566 55.8415 0.148268 55.9217 0.15397C55.9896 0.15397 56.0574 0.159672 56.1253 0.159672C56.1932 0.159672 56.2549 0.159672 56.2981 0.159672C56.3721 0.159672 56.4955 0.159672 56.6683 0.148268C56.8411 0.142566 57.0385 0.131162 57.2607 0.12546C57.4828 0.119758 57.7173 0.114056 57.9517 0.102652C58.1862 0.0912476 58.4207 0.0912476 58.6305 0.0912476C59.1981 0.0912476 59.735 0.15397 60.2471 0.285118C60.7592 0.416265 61.2097 0.627242 61.5922 0.923749C61.981 1.22026 62.2833 1.608 62.5116 2.08697C62.7399 2.56594 62.851 3.15326 62.851 3.85461C62.851 4.35639 62.7893 4.80686 62.672 5.206C62.5548 5.60515 62.3882 5.95867 62.1722 6.26659C61.9563 6.5745 61.7033 6.83679 61.401 7.05347C61.0986 7.27015 60.7716 7.45262 60.4075 7.58947C60.0435 7.73202 59.6609 7.83465 59.2475 7.89738C58.8341 7.9601 58.4145 7.99431 57.9764 7.99431C57.8222 7.99431 57.6309 7.99431 57.4087 7.98291C57.1866 7.9715 56.9645 7.9658 56.7424 7.9544C56.5202 7.94299 56.3104 7.93159 56.113 7.92589C55.9155 7.91448 55.7613 7.91448 55.6564 7.91448V7.89168C55.6811 7.81755 55.6996 7.72061 55.7242 7.61227C55.7489 7.50393 55.7674 7.36138 55.7798 7.19602C55.7983 7.03066 55.8106 6.83109 55.8168 6.60301C55.823 6.37493 55.8291 6.10693 55.8291 5.79902V2.28084C55.8291 1.97293 55.8291 1.70493 55.8168 1.47115C55.8106 1.23736 55.7983 1.03779 55.7798 0.872431C55.7674 0.707071 55.7489 0.564519 55.7242 0.450478C55.6996 0.336436 55.6811 0.239501 55.6564 0.165374V0.142566H55.6687Z" fill="#29D3CA"/>
</g>
<defs>
<clipPath id="clip0_322_2071">
<rect width="62.8571" height="8" fill="white"/>
</clipPath>
</defs>
</svg>
